<?xml version="1.0" encoding="UTF-8"?>
<svg id="Layer_1" data-name="Layer 1" xmlns="http://www.w3.org/2000/svg" xmlns:xlink="http://www.w3.org/1999/xlink" viewBox="0 0 548.09 140.63">
  <defs>
    <style>
      .cls-1 {
        fill: url(#linear-gradient-8);
      }

      .cls-2 {
        fill: url(#linear-gradient-7);
      }

      .cls-3 {
        fill: url(#linear-gradient-5);
      }

      .cls-4 {
        fill: url(#linear-gradient-6);
      }

      .cls-5 {
        fill: url(#linear-gradient-9);
      }

      .cls-6 {
        fill: url(#linear-gradient-4);
      }

      .cls-7 {
        fill: url(#linear-gradient-3);
      }

      .cls-8 {
        fill: url(#linear-gradient-2);
      }

      .cls-9 {
        fill: url(#linear-gradient);
      }

      .cls-10 {
        fill: #fff;
      }

      .cls-11 {
        fill: url(#linear-gradient-10);
      }

      .cls-12 {
        fill: url(#linear-gradient-11);
      }

      .cls-13 {
        fill: url(#linear-gradient-12);
      }

      .cls-14 {
        fill: url(#linear-gradient-13);
      }
    </style>
    <linearGradient id="linear-gradient" x1="3.16" y1="71.59" x2="99.41" y2="71.59" gradientUnits="userSpaceOnUse">
      <stop offset="0" stop-color="#545151"/>
      <stop offset="1" stop-color="#000"/>
    </linearGradient>
    <linearGradient id="linear-gradient-2" x1="101.71" y1="87.85" x2="201.84" y2="87.85" xlink:href="#linear-gradient"/>
    <linearGradient id="linear-gradient-3" x1="204.01" y1="77.26" x2="268.31" y2="77.26" xlink:href="#linear-gradient"/>
    <linearGradient id="linear-gradient-4" x1="282.46" y1="68.99" x2="304.53" y2="68.99" xlink:href="#linear-gradient"/>
    <linearGradient id="linear-gradient-5" x1="303.67" y1="87.83" x2="397.49" y2="87.83" xlink:href="#linear-gradient"/>
    <linearGradient id="linear-gradient-6" x1="512.6" y1="119.81" x2="548.09" y2="119.81" xlink:href="#linear-gradient"/>
    <linearGradient id="linear-gradient-7" x1="381.34" y1="74" x2="513.6" y2="74" xlink:href="#linear-gradient"/>
    <linearGradient id="linear-gradient-8" x1="375.62" y1="71.78" x2="502.52" y2="71.78" gradientUnits="userSpaceOnUse">
      <stop offset="0" stop-color="#9f9d9c"/>
      <stop offset=".75" stop-color="#e5e5e5"/>
      <stop offset=".8" stop-color="#fff"/>
    </linearGradient>
    <linearGradient id="linear-gradient-9" x1="303.71" y1="85.22" x2="385.68" y2="85.22" gradientUnits="userSpaceOnUse">
      <stop offset="0" stop-color="#9f9d9c"/>
      <stop offset=".67" stop-color="#d2d1cf"/>
      <stop offset=".77" stop-color="#e5e5e5"/>
      <stop offset=".88" stop-color="#fff"/>
    </linearGradient>
    <linearGradient id="linear-gradient-10" x1="282.14" y1="68.15" x2="298.07" y2="68.15" gradientUnits="userSpaceOnUse">
      <stop offset="0" stop-color="#9f9d9c"/>
      <stop offset=".69" stop-color="#c6c4c3"/>
      <stop offset=".94" stop-color="#e5e5e5"/>
    </linearGradient>
    <linearGradient id="linear-gradient-11" x1="202.59" y1="77.73" x2="258.69" y2="77.73" gradientUnits="userSpaceOnUse">
      <stop offset="0" stop-color="#9f9d9c"/>
      <stop offset=".86" stop-color="#e5e5e5"/>
      <stop offset=".97" stop-color="#fff"/>
    </linearGradient>
    <linearGradient id="linear-gradient-12" x1="100.73" y1="87.34" x2="191.01" y2="87.34" xlink:href="#linear-gradient-11"/>
    <linearGradient id="linear-gradient-13" x1="0" y1="69.57" x2="87.83" y2="69.57" gradientUnits="userSpaceOnUse">
      <stop offset="0" stop-color="#9f9d9c"/>
      <stop offset=".45" stop-color="#aeacaa"/>
      <stop offset=".73" stop-color="#dddddc"/>
      <stop offset=".81" stop-color="#f2f1f1"/>
      <stop offset="1" stop-color="#fff"/>
    </linearGradient>
  </defs>
  <path class="cls-9" d="M77.26,45.06v-.04c-6.82-4.35-14.53-6.52-23.09-6.52-4.3,0-8.39.72-12.23,2.22-3.88,1.49-7.29,3.32-10.23,5.62-2.68,2.05-4.77,4.13-6.43,6.18V13.79c0-3.2-1.07-5.88-3.11-8.01-2.09-2.13-4.73-3.24-7.93-3.24s-5.88,1.11-7.97,3.28c-2.09,2.13-3.11,4.81-3.11,8.01v115.6c0,3.32,1.06,6.01,3.11,8.1,2.09,2.09,4.73,3.11,7.93,3.11s5.84-1.07,7.93-3.24c2.09-2.13,3.11-4.81,3.11-8.01v-1.15c1.32,1.32,2.81,2.6,4.52,3.92,3.24,2.47,7.03,4.47,11.33,6.09,4.3,1.58,8.91,2.39,13.81,2.39,8.35,0,15.85-2.17,22.54-6.52,6.69-4.35,12.02-10.35,16.02-18.02s5.97-16.53,5.97-26.59-2-18.88-5.97-26.5c-4.01-7.63-9.37-13.59-16.19-17.94ZM74.87,105.18c-2.26,4.73-5.41,8.44-9.37,11.12-4.01,2.68-8.69,4.05-14.1,4.05s-10.14-1.36-14.19-4.05c-4.05-2.68-7.2-6.39-9.46-11.12-2.26-4.73-3.41-9.97-3.41-15.72s1.15-11.12,3.41-15.72c2.26-4.6,5.41-8.27,9.46-10.95,4.05-2.68,8.78-4.05,14.19-4.05s10.1,1.36,14.1,4.05,7.12,6.35,9.37,10.95c2.26,4.6,3.41,9.84,3.41,15.72s-1.15,11.04-3.41,15.72Z"/>
  <path class="cls-8" d="M177.08,43.32c-7.54-4.35-15.98-6.52-25.31-6.52s-17.77,2.17-25.31,6.52c-7.54,4.35-13.55,10.35-18.02,18.02-4.47,7.67-6.73,16.53-6.73,26.59s2.26,18.92,6.73,26.59c4.47,7.67,10.48,13.64,18.02,17.94,7.54,4.3,15.98,6.43,25.31,6.43s17.77-2.13,25.31-6.43,13.55-10.27,18.02-17.94c4.47-7.67,6.73-16.53,6.73-26.59s-2.26-18.92-6.73-26.59c-4.47-7.67-10.48-13.68-18.02-18.02ZM175.97,104.04c-2.51,4.6-5.88,8.18-10.14,10.78-4.22,2.56-8.91,3.88-14.06,3.88s-9.84-1.28-14.06-3.88c-4.22-2.56-7.63-6.18-10.14-10.78-2.51-4.6-3.79-9.97-3.79-16.11s1.24-11.67,3.79-16.28c2.51-4.6,5.88-8.18,10.14-10.78,4.22-2.56,8.91-3.88,14.06-3.88s9.84,1.28,14.06,3.88,7.63,6.18,10.14,10.78,3.79,10.01,3.79,16.28-1.28,11.5-3.79,16.11Z"/>
  <path class="cls-7" d="M257.96,60.62l.04.09c2.94,0,5.41-.94,7.37-2.85,1.96-1.92,2.94-4.26,2.94-7.07s-.98-5.41-2.94-7.37c-1.96-1.96-4.43-2.94-7.37-2.94h-13.08v-11.76c0-3.2-1.02-5.88-3.03-8.01-2-2.13-4.64-3.24-7.84-3.24s-5.88,1.07-8.01,3.24c-2.13,2.13-3.24,4.81-3.24,8.01v11.76h-8.48c-2.94,0-5.41.94-7.37,2.85-1.96,1.92-2.94,4.26-2.94,7.07s.98,5.41,2.94,7.37c1.96,1.96,4.43,2.94,7.37,2.94h8.48v50.79c0,6.01.94,10.74,2.77,14.19s4.13,5.97,6.9,7.63c2.77,1.66,5.71,2.68,8.82,3.11,3.11.43,5.97.64,8.56.64,4.3,0,8.31-1.11,12.06-3.32,3.75-2.22,5.62-5.03,5.62-8.48,0-2.81-.72-5.03-2.13-6.65-1.41-1.58-2.98-2.39-4.69-2.39-1.58,0-3.03.26-4.22.81-1.24.55-2.56.81-4.05.81-1.36,0-2.6-.26-3.79-.72-1.15-.47-2.09-1.28-2.77-2.39-.68-1.11-1.02-2.51-1.02-4.22v-49.9h13.08Z"/>
  <path class="cls-6" d="M293.66.84l.04.04c-3.2,0-5.88,1.07-8.01,3.24-2.13,2.13-3.24,4.81-3.24,8.01v113.77c0,3.2,1.02,5.88,3.11,8.01,2.09,2.13,4.64,3.24,7.71,3.24s5.88-1.07,8.01-3.24,3.24-4.81,3.24-8.01V12.09c0-3.2-1.02-5.88-3.03-8.01-2-2.13-4.64-3.24-7.84-3.24Z"/>
  <path class="cls-3" d="M383.47,51.2h.13c-4.3-4.47-9.25-8.01-14.83-10.57-5.58-2.56-11.5-3.88-17.77-3.88-8.1,0-15.77,2.09-23.01,6.26-7.24,4.18-13.12,10.14-17.6,17.94-4.47,7.8-6.73,17.21-6.73,28.25,0,9.46,2.05,17.94,6.18,25.4,4.09,7.5,10.01,13.42,17.68,17.77,7.67,4.35,16.7,6.52,27.14,6.52,6.14,0,12.1-1.02,17.85-3.03,5.75-2.05,10.23-4.39,13.42-7.07,3.45-2.68,5.16-5.71,5.16-9.03,0-2.47-.89-4.6-2.68-6.43-1.79-1.83-4.01-2.77-6.73-2.77-1.96,0-4.05.55-6.26,1.66-1.36.72-2.85,1.62-4.52,2.68-1.66,1.07-3.83,1.92-6.52,2.68-2.68.72-6.31,1.11-10.87,1.11-4.9,0-9.54-1.19-13.89-3.58-4.35-2.39-7.93-5.88-10.7-10.48-1.62-2.68-2.68-5.75-3.37-9.12h60.72c2.94,0,5.54-.94,7.71-2.77,2.17-1.83,3.37-4.22,3.49-7.2,0-6.65-1.28-12.87-3.79-18.79-2.51-5.92-5.92-11.08-10.23-15.55ZM374.06,77.07h-48.23c.3-1.49.64-2.94,1.07-4.22,1.36-3.92,3.2-7.07,5.54-9.37,2.34-2.34,5.11-4.01,8.27-4.99,3.2-.98,6.65-1.49,10.31-1.49s7.41.81,10.78,2.47c3.37,1.66,6.18,3.92,8.48,6.73,2.26,2.81,3.54,6.01,3.79,9.59v1.28Z"/>
  <path class="cls-4" d="M530.37,102.3c-9.8,0-17.77,7.84-17.77,17.51s7.93,17.51,17.77,17.51,17.73-7.84,17.73-17.51-7.93-17.51-17.73-17.51Z"/>
  <path class="cls-2" d="M506.29,20.03l.08-.09c-2.3-2.56-4.81-3.92-7.5-4.01h-.21c-4.52-.6-7.67.26-9.67,1.11-7.29,3.03-9.93,10.35-14.49,9.67-1.41-.21-2.43-1.11-3.03-1.7-1.11-1.41-2.47-2.64-3.88-3.79-.04-.04-.13-.04-.13-.04-1.62-1.32-3.32-2.51-5.2-3.54-.34-.21-.64-.38-.98-.55-.77-.38-1.45-.77-2.22-1.07-4.13-2.05-8.39-3.49-12.87-4.52-2.13-.47-4.22-.81-6.26-1.07-2.98-.43-5.97-.64-8.78-.64-7.54,0-14.79,1.45-21.65,4.39-6.86,2.94-12.44,7.07-16.75,12.48-4.35,5.41-6.48,11.93-6.48,19.64,0,6.82,1.32,12.44,3.96,16.92,2.64,4.43,6.01,8.05,10.18,10.78,4.13,2.68,8.73,4.86,13.76,6.6,4.99,1.66,9.89,3.2,14.66,4.6,4.6,1.24,8.82,2.56,12.57,3.92,3.79,1.41,6.86,3.11,9.16,5.07,2.3,2.05,3.49,4.73,3.49,8.14,0,4.01-1.07,6.95-3.11,8.91-2.09,1.92-4.56,3.15-7.29,3.71-2.77.55-5.37.89-7.67,1.07-7.37,0-13.59-1.24-18.54-3.75-4.94-2.47-9.63-5.88-14.1-10.4-2.64-2.64-5.37-4.09-8.1-4.3-2.77-.21-5.41.43-7.88,1.96-3.83,2.47-5.88,5.41-6.05,8.78-.17,3.37.55,6.18,2.09,8.31,6.05,8.05,13.59,13.64,22.71,16.83,9.12,3.15,18.15,4.73,27.27,4.73,7.29,0,14.36-1.41,21.3-4.3,6.9-2.85,12.7-7.03,17.34-12.57,4.6-5.58,6.9-12.27,6.9-20.15,0-.85,0-1.66-.04-2.51-.26-5.67-1.49-10.4-3.62-14.23-2.47-4.39-5.67-7.97-9.67-10.78-4.01-2.81-8.39-5.03-13.17-6.69-4.81-1.7-9.46-3.15-14.15-4.39-4.43-1.24-8.69-2.51-12.57-3.83-3.96-1.28-7.07-2.98-9.37-5.07-2.3-2.09-3.49-4.86-3.49-8.39,0-3.83,1.02-6.69,2.98-8.48,1.96-1.75,4.35-2.94,7.07-3.49,2.68-.55,5.2-.81,7.5-.81,5.71,0,10.78,1.02,15.17,2.98,2.13,1.02,4.13,2.13,5.84,3.49.04,0,.13.04.13.04,1.7,2.22,3.62,4.18,5.71,5.92,4.86,4.09,10.44,5.79,16.62,5.07,4.18-.47,7.67-1.62,10.48-3.41.47-.47,4.52-4.9,8.52-8.78.6-.6,1.88-1.83,3.75-2.22.55-.13,1.11-.17,1.7-.13.81,0,1.66.26,2.64.77.89.55,1.7,1.53,2.34,3.11.68,1.53.98,3.96.81,7.29-.13,3.07-.6,5.45-1.45,7.16-.89,1.75-2.09,3.2-3.49,4.3-1.45,1.07-2.98,2.09-4.6,3.11-1.66,1.02-3.37,2.22-5.16,3.58-1.7,1.41-3.37,3.28-4.86,5.58-1.49,2.34-2.73,5.41-3.75,9.16-1.02,3.75-1.62,8.52-1.83,14.36-.04,1.66-.04,3.28,0,4.81.13,4.73.77,8.91,1.83,12.53,1.45,4.81,3.37,8.52,5.71,11.04,2.43,2.56,4.86,3.83,7.46,3.96,3.2.13,6.48-1.11,9.8-3.71,3.32-2.64,6.18-7.33,8.52-14.15.64-1.83.98-4.22,1.02-7.12s-.6-5.45-1.87-7.58c-.81-1.41-1.7-1.96-2.73-1.83-.98.17-2,1.32-2.98,3.58-1.7,3.79-3.49,6.69-5.28,8.74-1.83,2.09-4.01,3.07-6.65,2.94-.85-.17-1.7-.47-2.68-.98-.98-.47-1.83-1.62-2.47-3.28-.3-.77-1.36-3.41-.85-7.71.26-2.05.85-7.46,4.86-11.12.09-.09,1.53-1.19,4.6-3.2,1.7-1.11,3.49-2.43,5.37-3.79,1.83-1.41,3.49-3.2,5.03-5.45,1.53-2.3,2.9-5.28,3.96-9.12,1.06-3.83,1.7-8.69,1.87-14.44.26-6.65-.34-12.31-1.66-16.96-1.32-4.73-3.2-8.35-5.58-10.99Z"/>
  <path class="cls-10" d="M525.49,102.71c-7.07,0-12.81,7.84-12.81,17.51s5.72,17.51,12.81,17.51,12.78-7.84,12.78-17.51-5.72-17.51-12.78-17.51Z"/>
  <path class="cls-1" d="M495.6,17.73c-2.21-2.56-4.62-3.92-7.2-4.01h-.2c-4.33-.6-7.36.26-9.28,1.11-6.99,3.03-9.53,10.35-13.9,9.67-1.35-.21-2.33-1.11-2.9-1.7-1.06-1.41-2.37-2.64-3.72-3.79-.04-.04-.12-.04-.12-.04h0c-1.55-1.32-3.19-2.51-4.99-3.54h0c-.33-.21-.61-.38-.94-.55-.74-.38-1.39-.77-2.13-1.07-3.97-2.05-8.05-3.49-12.35-4.52-2.04-.47-4.05-.81-6.01-1.07-2.86-.43-5.72-.64-8.42-.64-7.24,0-14.19,1.45-20.77,4.39-6.58,2.94-11.94,7.07-16.07,12.48-4.17,5.41-6.21,11.93-6.21,19.64,0,6.82,1.27,12.44,3.8,16.92,2.53,4.43,5.76,8.05,9.77,10.78,3.97,2.68,8.38,4.86,13.21,6.6,4.78,1.66,9.49,3.2,14.06,4.6,4.42,1.24,8.46,2.56,12.06,3.92,3.64,1.41,6.58,3.11,8.79,5.07,2.21,2.05,3.35,4.73,3.35,8.14,0,4.01-1.02,6.95-2.98,8.91-2,1.92-4.37,3.15-6.99,3.71-2.66.55-5.15.89-7.36,1.07-7.07,0-13.04-1.24-17.78-3.75-4.74-2.47-9.24-5.88-13.53-10.4-2.53-2.64-5.15-4.09-7.77-4.3-2.66-.21-5.19.43-7.56,1.96-3.68,2.47-5.64,5.41-5.81,8.78-.16,3.37.53,6.18,2,8.31,5.81,8.05,13.04,13.63,21.79,16.83,8.75,3.15,17.42,4.73,26.17,4.73,6.99,0,13.78-1.41,20.44-4.3,6.62-2.85,12.18-7.03,16.64-12.57,4.42-5.58,6.62-12.27,6.62-20.15,0-.85,0-1.66-.04-2.51-.25-5.67-1.43-10.4-3.48-14.23-2.37-4.39-5.44-7.97-9.28-10.78-3.84-2.81-8.05-5.03-12.63-6.69-4.62-1.7-9.08-3.15-13.57-4.39-4.25-1.24-8.34-2.51-12.06-3.83-3.8-1.28-6.79-2.98-8.99-5.07-2.21-2.09-3.35-4.86-3.35-8.39,0-3.83.98-6.69,2.86-8.48,1.88-1.75,4.17-2.94,6.79-3.49,2.58-.55,4.99-.81,7.2-.81,5.48,0,10.34,1.02,14.55,2.98,2.04,1.02,3.97,2.13,5.6,3.49.04,0,.12.04.12.04,1.64,2.22,3.48,4.18,5.48,5.92,4.66,4.09,10.02,5.79,15.94,5.07,4.01-.47,7.36-1.62,10.06-3.41.45-.47,4.33-4.9,8.18-8.78.57-.6,1.8-1.83,3.6-2.22.53-.13,1.06-.17,1.64-.13.78,0,1.59.26,2.53.77.86.55,1.64,1.53,2.25,3.11.65,1.53.94,3.96.78,7.29-.12,3.07-.57,5.45-1.39,7.16-.86,1.75-2,3.2-3.35,4.3-1.39,1.07-2.86,2.09-4.42,3.11-1.59,1.02-3.23,2.22-4.95,3.58-1.64,1.41-3.23,3.28-4.66,5.58-1.43,2.34-2.62,5.41-3.6,9.16-.98,3.75-1.55,8.52-1.76,14.36-.04,1.66-.04,3.28,0,4.81.12,4.73.74,8.91,1.76,12.53,1.39,4.81,3.23,8.52,5.48,11.04,2.33,2.56,4.66,3.83,7.15,3.96,3.07.13,6.21-1.11,9.4-3.71,3.19-2.64,5.93-7.33,8.18-14.15.61-1.83.94-4.22.98-7.12.04-2.9-.57-5.45-1.8-7.58-.78-1.41-1.64-1.96-2.62-1.83-.94.17-1.92,1.32-2.86,3.58-1.64,3.79-3.35,6.69-5.07,8.73-1.76,2.09-3.84,3.07-6.38,2.94-.82-.17-1.64-.47-2.58-.98-.94-.47-1.76-1.62-2.37-3.28-.29-.77-1.31-3.41-.82-7.71.25-2.05.82-7.46,4.66-11.12.08-.09,1.47-1.19,4.42-3.2,1.64-1.11,3.35-2.43,5.15-3.79,1.76-1.41,3.35-3.2,4.82-5.45,1.47-2.3,2.78-5.28,3.8-9.12,1.02-3.83,1.64-8.69,1.8-14.44.25-6.65-.33-12.31-1.59-16.96-1.27-4.73-3.07-8.35-5.36-10.99l.08-.09Z"/>
  <path class="cls-5" d="M373.54,48.6c-3.76-4.47-8.08-8.01-12.95-10.57-4.88-2.56-10.05-3.88-15.52-3.88-7.07,0-13.77,2.09-20.1,6.26-6.33,4.18-11.47,10.14-15.37,17.94-3.91,7.8-5.88,17.21-5.88,28.25,0,9.46,1.79,17.94,5.4,25.4,3.57,7.5,8.75,13.42,15.45,17.77,6.7,4.35,14.59,6.52,23.71,6.52,5.36,0,10.57-1.02,15.6-3.03,5.03-2.05,8.93-4.39,11.73-7.07,3.02-2.68,4.5-5.71,4.5-9.03,0-2.47-.78-4.6-2.35-6.43-1.56-1.83-3.5-2.77-5.88-2.77-1.71,0-3.54.55-5.47,1.66-1.19.72-2.49,1.62-3.95,2.68s-3.35,1.92-5.7,2.68c-2.35.72-5.51,1.11-9.49,1.11-4.28,0-8.34-1.19-12.14-3.58-3.8-2.39-6.92-5.88-9.34-10.48-1.41-2.68-2.35-5.75-2.94-9.12h53.04c2.57,0,4.84-.94,6.74-2.77,1.9-1.83,2.94-4.22,3.05-7.2,0-6.65-1.12-12.87-3.31-18.79-2.2-5.92-5.17-11.08-8.93-15.55h.11ZM365.17,74.47h-42.1c.26-1.49.56-2.94.93-4.22,1.19-3.92,2.79-7.07,4.84-9.37,2.05-2.34,4.47-4.01,7.22-4.99,2.79-.98,5.81-1.49,9.01-1.49s6.48.81,9.42,2.47c2.94,1.66,5.4,3.92,7.41,6.73,1.97,2.81,3.09,6.01,3.31,9.59v1.28h-.04Z"/>
  <path class="cls-11" d="M290.26.04c-2.31,0-4.24,1.07-5.78,3.24-1.54,2.13-2.34,4.81-2.34,8.01v113.77c0,3.2.74,5.88,2.24,8.01,1.51,2.13,3.35,3.24,5.57,3.24s4.24-1.07,5.78-3.24,2.34-4.81,2.34-8.01V11.25c0-3.2-.74-5.88-2.18-8.01s-3.35-3.24-5.66-3.24l.03.04Z"/>
  <path class="cls-12" d="M249.69,61.18c2.57,0,4.72-.94,6.43-2.85s2.57-4.26,2.57-7.07-.86-5.41-2.57-7.37c-1.71-1.96-3.87-2.94-6.43-2.94h-11.41v-11.76c0-3.2-.89-5.88-2.64-8.01-1.75-2.13-4.05-3.24-6.84-3.24s-5.13,1.07-6.99,3.24c-1.86,2.13-2.83,4.81-2.83,8.01v11.76h-7.4c-2.57,0-4.72.94-6.43,2.85s-2.57,4.26-2.57,7.07.86,5.41,2.57,7.37c1.71,1.96,3.87,2.94,6.43,2.94h7.4v50.79c0,6.01.82,10.74,2.42,14.19s3.61,5.97,6.02,7.63c2.42,1.66,4.98,2.68,7.7,3.11,2.71.43,5.2.64,7.47.64,3.75,0,7.25-1.11,10.52-3.32s4.91-5.03,4.91-8.48c0-2.81-.63-5.03-1.86-6.65-1.23-1.58-2.6-2.39-4.09-2.39-1.38,0-2.64.26-3.68.81-1.08.55-2.23.81-3.53.81-1.19,0-2.27-.26-3.31-.72-1-.47-1.82-1.28-2.42-2.39-.59-1.11-.89-2.51-.89-4.22v-49.9h11.41l.04.09Z"/>
  <path class="cls-13" d="M168.69,42.82c-6.8-4.35-14.41-6.52-22.82-6.52s-16.02,2.17-22.82,6.52c-6.8,4.35-12.22,10.35-16.25,18.02-4.03,7.67-6.07,16.53-6.07,26.59s2.04,18.92,6.07,26.59,9.45,13.63,16.25,17.94c6.8,4.3,14.41,6.43,22.82,6.43s16.02-2.13,22.82-6.43,12.22-10.27,16.25-17.94c4.03-7.67,6.07-16.53,6.07-26.59s-2.04-18.92-6.07-26.59c-4.03-7.67-9.45-13.68-16.25-18.02ZM167.69,103.53c-2.27,4.6-5.3,8.18-9.14,10.78-3.8,2.56-8.03,3.88-12.68,3.88s-8.87-1.28-12.68-3.88c-3.8-2.56-6.88-6.18-9.14-10.78-2.27-4.6-3.42-9.97-3.42-16.11s1.11-11.67,3.42-16.28c2.27-4.6,5.3-8.18,9.14-10.78,3.8-2.56,8.03-3.88,12.68-3.88s8.87,1.28,12.68,3.88c3.8,2.6,6.88,6.18,9.14,10.78,2.27,4.6,3.42,10.01,3.42,16.28s-1.15,11.5-3.42,16.11Z"/>
  <path class="cls-14" d="M67.61,43c-6.22-4.35-13.26-6.52-21.07-6.52-3.93,0-7.66.72-11.16,2.22-3.54,1.49-6.65,3.32-9.33,5.62-2.45,2.05-4.35,4.13-5.87,6.18V11.77c0-3.2-.97-5.88-2.84-8.01-1.91-2.13-4.32-3.24-7.23-3.24S4.74,1.63,2.84,3.8C.93,5.93,0,8.62,0,11.81v115.6c0,3.32.97,6.01,2.84,8.1,1.91,2.09,4.32,3.11,7.23,3.11s5.33-1.07,7.23-3.24c1.91-2.13,2.84-4.81,2.84-8.01v-1.15c1.21,1.32,2.57,2.6,4.12,3.92,2.95,2.47,6.42,4.47,10.34,6.09,3.93,1.58,8.13,2.39,12.6,2.39,7.62,0,14.46-2.17,20.57-6.52,6.1-4.35,10.96-10.35,14.62-18.02,3.65-7.67,5.44-16.53,5.44-26.59s-1.83-18.88-5.44-26.5c-3.65-7.63-8.55-13.59-14.77-17.94v-.04ZM65.44,103.17c-2.06,4.73-4.94,8.44-8.55,11.12-3.65,2.68-7.93,4.05-12.87,4.05s-9.25-1.36-12.95-4.05c-3.69-2.68-6.57-6.39-8.63-11.12-2.06-4.73-3.11-9.97-3.11-15.72s1.05-11.12,3.11-15.72c2.06-4.6,4.94-8.27,8.63-10.95,3.69-2.68,8.01-4.05,12.95-4.05s9.21,1.36,12.87,4.05,6.49,6.35,8.55,10.95,3.11,9.84,3.11,15.72-1.05,11.04-3.11,15.72Z"/>
</svg>