<?xml version="1.0" encoding="UTF-8"?>
<svg id="Layer_1" data-name="Layer 1" xmlns="http://www.w3.org/2000/svg" viewBox="0 0 600.83 139.89">
  <defs>
    <style>
      .cls-1 {
        fill: #10232d;
      }
    </style>
  </defs>
  <path class="cls-1" d="M74.1,42.48c-6.82-4.35-14.53-6.52-23.09-6.52-4.3,0-8.39.72-12.23,2.22-3.88,1.49-7.29,3.32-10.23,5.62-2.68,2.05-4.77,4.13-6.43,6.18V11.25c0-3.2-1.07-5.88-3.11-8.01-2.09-2.13-4.73-3.24-7.93-3.24S5.2,1.11,3.11,3.28C1.02,5.41,0,8.1,0,11.29v115.6c0,3.32,1.07,6.01,3.11,8.1,2.09,2.09,4.73,3.11,7.93,3.11s5.84-1.07,7.93-3.24c2.09-2.13,3.11-4.81,3.11-8.01v-1.15c1.32,1.32,2.81,2.6,4.52,3.92,3.24,2.47,7.03,4.47,11.33,6.09,4.3,1.58,8.91,2.39,13.81,2.39,8.35,0,15.85-2.17,22.54-6.52,6.69-4.35,12.02-10.35,16.02-18.02,4.01-7.67,5.97-16.53,5.97-26.59s-2-18.88-5.97-26.5c-4.01-7.63-9.37-13.59-16.19-17.94v-.04ZM71.71,102.65c-2.26,4.73-5.41,8.44-9.37,11.12-4.01,2.68-8.69,4.05-14.1,4.05s-10.14-1.36-14.19-4.05c-4.05-2.68-7.2-6.39-9.46-11.12-2.26-4.73-3.41-9.97-3.41-15.72s1.15-11.12,3.41-15.72c2.26-4.6,5.41-8.27,9.46-10.95,4.05-2.68,8.78-4.05,14.19-4.05s10.1,1.36,14.1,4.05c4.01,2.68,7.12,6.35,9.37,10.95s3.41,9.84,3.41,15.72-1.15,11.04-3.41,15.72Z"/>
  <path class="cls-1" d="M178.45,42.48c-7.54-4.35-15.98-6.52-25.31-6.52s-17.77,2.17-25.31,6.52c-7.54,4.35-13.55,10.35-18.02,18.02-4.47,7.67-6.73,16.53-6.73,26.59s2.26,18.92,6.73,26.59,10.48,13.63,18.02,17.94c7.54,4.3,15.98,6.43,25.31,6.43s17.77-2.13,25.31-6.43,13.55-10.27,18.02-17.94c4.47-7.67,6.73-16.53,6.73-26.59s-2.26-18.92-6.73-26.59c-4.47-7.67-10.48-13.68-18.02-18.02ZM177.34,103.2c-2.51,4.6-5.88,8.18-10.14,10.78-4.22,2.56-8.91,3.88-14.06,3.88s-9.84-1.28-14.06-3.88c-4.22-2.56-7.63-6.18-10.14-10.78-2.51-4.6-3.79-9.97-3.79-16.11s1.24-11.67,3.79-16.28c2.51-4.6,5.88-8.18,10.14-10.78,4.22-2.56,8.91-3.88,14.06-3.88s9.84,1.28,14.06,3.88c4.22,2.6,7.63,6.18,10.14,10.78,2.51,4.6,3.79,10.01,3.79,16.28s-1.28,11.5-3.79,16.11Z"/>
  <path class="cls-1" d="M259.36,59.87c2.94,0,5.41-.94,7.37-2.85s2.94-4.26,2.94-7.07-.98-5.41-2.94-7.37c-1.96-1.96-4.43-2.94-7.37-2.94h-13.08v-11.76c0-3.2-1.02-5.88-3.03-8.01-2-2.13-4.64-3.24-7.84-3.24s-5.88,1.07-8.01,3.24c-2.13,2.13-3.24,4.81-3.24,8.01v11.76h-8.48c-2.94,0-5.41.94-7.37,2.85s-2.94,4.26-2.94,7.07.98,5.41,2.94,7.37c1.96,1.96,4.43,2.94,7.37,2.94h8.48v50.79c0,6.01.94,10.74,2.77,14.19s4.13,5.97,6.9,7.63c2.77,1.66,5.71,2.68,8.82,3.11,3.11.43,5.97.64,8.56.64,4.3,0,8.31-1.11,12.06-3.32,3.75-2.22,5.62-5.03,5.62-8.48,0-2.81-.72-5.03-2.13-6.65-1.41-1.58-2.98-2.39-4.69-2.39-1.58,0-3.03.26-4.22.81-1.24.55-2.56.81-4.05.81-1.36,0-2.6-.26-3.79-.72-1.15-.47-2.09-1.28-2.77-2.39-.68-1.11-1.02-2.51-1.02-4.22v-49.9h13.08l.04.09Z"/>
  <path class="cls-1" d="M295.07.04c-3.2,0-5.88,1.07-8.01,3.24-2.13,2.13-3.24,4.81-3.24,8.01v113.77c0,3.2,1.02,5.88,3.11,8.01,2.09,2.13,4.64,3.24,7.71,3.24s5.88-1.07,8.01-3.24,3.24-4.81,3.24-8.01V11.25c0-3.2-1.02-5.88-3.03-8.01s-4.64-3.24-7.84-3.24l.04.04Z"/>
  <path class="cls-1" d="M397.25,50.36c-4.3-4.47-9.25-8.01-14.83-10.57-5.58-2.56-11.5-3.88-17.77-3.88-8.1,0-15.77,2.09-23.01,6.26-7.24,4.18-13.12,10.14-17.6,17.94-4.47,7.8-6.73,17.21-6.73,28.25,0,9.46,2.05,17.94,6.18,25.4,4.09,7.5,10.01,13.42,17.68,17.77,7.67,4.35,16.7,6.52,27.14,6.52,6.14,0,12.1-1.02,17.85-3.03,5.75-2.05,10.23-4.39,13.42-7.07,3.45-2.68,5.16-5.71,5.16-9.03,0-2.47-.89-4.6-2.68-6.43-1.79-1.83-4.01-2.77-6.73-2.77-1.96,0-4.05.55-6.26,1.66-1.36.72-2.85,1.62-4.52,2.68-1.66,1.07-3.83,1.92-6.52,2.68-2.68.72-6.31,1.11-10.87,1.11-4.9,0-9.54-1.19-13.89-3.58-4.35-2.39-7.93-5.88-10.69-10.48-1.62-2.68-2.68-5.75-3.37-9.12h60.72c2.94,0,5.54-.94,7.71-2.77s3.37-4.22,3.49-7.2c0-6.65-1.28-12.87-3.79-18.79s-5.92-11.08-10.23-15.55h.13ZM387.66,76.23h-48.19c.3-1.49.64-2.94,1.07-4.22,1.36-3.92,3.2-7.07,5.54-9.37,2.34-2.34,5.11-4.01,8.27-4.99,3.2-.98,6.65-1.49,10.31-1.49s7.41.81,10.78,2.47c3.37,1.66,6.18,3.92,8.48,6.73,2.26,2.81,3.54,6.01,3.79,9.59v1.28h-.04Z"/>
  <path class="cls-1" d="M583.11,100.77c-9.8,0-17.77,7.84-17.77,17.51s7.93,17.51,17.77,17.51,17.73-7.84,17.73-17.51-7.93-17.51-17.73-17.51Z"/>
  <path class="cls-1" d="M544.16,21.65c-2.3-2.56-4.81-3.92-7.5-4.01h-.21c-4.52-.6-7.67.26-9.67,1.11-7.29,3.03-9.93,10.35-14.49,9.67-1.41-.21-2.43-1.11-3.03-1.7-1.11-1.41-2.47-2.64-3.88-3.79-.04-.04-.13-.04-.13-.04h0c-1.62-1.32-3.32-2.51-5.2-3.54h0c-.34-.21-.64-.38-.98-.55-.77-.38-1.45-.77-2.22-1.07-4.13-2.05-8.39-3.49-12.87-4.52-2.13-.47-4.22-.81-6.26-1.07-2.98-.43-5.97-.64-8.78-.64-7.54,0-14.79,1.45-21.65,4.39-6.86,2.94-12.44,7.07-16.75,12.48-4.35,5.41-6.48,11.93-6.48,19.64,0,6.82,1.32,12.44,3.96,16.92,2.64,4.43,6.01,8.05,10.18,10.78,4.13,2.68,8.73,4.86,13.76,6.6,4.99,1.66,9.89,3.2,14.66,4.6,4.6,1.24,8.82,2.56,12.57,3.92,3.79,1.41,6.86,3.11,9.16,5.07,2.3,2.05,3.49,4.73,3.49,8.14,0,4.01-1.07,6.95-3.11,8.91-2.09,1.92-4.56,3.15-7.29,3.71-2.77.55-5.37.89-7.67,1.07-7.37,0-13.59-1.24-18.54-3.75-4.94-2.47-9.63-5.88-14.1-10.4-2.64-2.64-5.37-4.09-8.1-4.3-2.77-.21-5.41.43-7.88,1.96-3.83,2.47-5.88,5.41-6.05,8.78-.17,3.37.55,6.18,2.09,8.31,6.05,8.05,13.59,13.63,22.71,16.83,9.12,3.15,18.15,4.73,27.27,4.73,7.29,0,14.36-1.41,21.3-4.3,6.9-2.85,12.7-7.03,17.34-12.57,4.6-5.58,6.9-12.27,6.9-20.15,0-.85,0-1.66-.04-2.51-.26-5.67-1.49-10.4-3.62-14.23-2.47-4.39-5.67-7.97-9.67-10.78-4.01-2.81-8.39-5.03-13.17-6.69-4.81-1.7-9.46-3.15-14.15-4.39-4.43-1.24-8.69-2.51-12.57-3.83-3.96-1.28-7.07-2.98-9.37-5.07-2.3-2.09-3.49-4.86-3.49-8.39,0-3.83,1.02-6.69,2.98-8.48,1.96-1.75,4.35-2.94,7.07-3.49,2.68-.55,5.2-.81,7.5-.81,5.71,0,10.78,1.02,15.17,2.98,2.13,1.02,4.13,2.13,5.84,3.49.04,0,.13.04.13.04,1.7,2.22,3.62,4.18,5.71,5.92,4.86,4.09,10.44,5.79,16.62,5.07,4.18-.47,7.67-1.62,10.48-3.41.47-.47,4.52-4.9,8.52-8.78.6-.6,1.87-1.83,3.75-2.22.55-.13,1.11-.17,1.7-.13.81,0,1.66.26,2.64.77.89.55,1.7,1.53,2.34,3.11.68,1.53.98,3.96.81,7.29-.13,3.07-.6,5.45-1.45,7.16-.89,1.75-2.09,3.2-3.49,4.3-1.45,1.07-2.98,2.09-4.6,3.11-1.66,1.02-3.37,2.22-5.16,3.58-1.7,1.41-3.37,3.28-4.86,5.58-1.49,2.34-2.73,5.41-3.75,9.16-1.02,3.75-1.62,8.52-1.83,14.36-.04,1.66-.04,3.28,0,4.81.13,4.73.77,8.91,1.83,12.53,1.45,4.81,3.37,8.52,5.71,11.04,2.43,2.56,4.86,3.83,7.46,3.96,3.2.13,6.48-1.11,9.8-3.71,3.32-2.64,6.18-7.33,8.52-14.15.64-1.83.98-4.22,1.02-7.12.04-2.9-.6-5.45-1.87-7.58-.81-1.41-1.7-1.96-2.73-1.83-.98.17-2,1.32-2.98,3.58-1.7,3.79-3.49,6.69-5.28,8.73-1.83,2.09-4.01,3.07-6.65,2.94-.85-.17-1.7-.47-2.68-.98-.98-.47-1.83-1.62-2.47-3.28-.3-.77-1.36-3.41-.85-7.71.26-2.05.85-7.46,4.86-11.12.09-.09,1.53-1.19,4.6-3.2,1.7-1.11,3.49-2.43,5.37-3.79,1.83-1.41,3.49-3.2,5.03-5.45,1.53-2.3,2.9-5.28,3.96-9.12,1.07-3.83,1.7-8.69,1.87-14.44.26-6.65-.34-12.31-1.66-16.96-1.32-4.73-3.2-8.35-5.58-10.99l.09-.09Z"/>
</svg>